<svg width="130" height="85" viewBox="0 0 130 85" fill="none" xmlns="http://www.w3.org/2000/svg">
<rect x="99.4813" y="26.8896" width="29.734" height="29.734" transform="rotate(20.3625 99.4813 26.8896)" fill="white" stroke="black"/>
<circle cx="108.246" cy="46.0006" r="6.1468" transform="rotate(20.3625 108.246 46.0006)" fill="black"/>
<rect x="80.4634" y="32.6321" width="29.734" height="29.734" transform="rotate(13.3322 80.4634 32.6321)" fill="white" stroke="black"/>
<path d="M84.7131 48.9178L93.1102 43.7382L98.2898 52.1353L89.8927 57.3149L84.7131 48.9178Z" stroke="black"/>
<rect x="54.7216" y="7.25486" width="29.734" height="29.734" transform="rotate(11.0981 54.7216 7.25486)" fill="white" stroke="black"/>
<path d="M72.8115 20.9825L65.2019 29.7061L61.4518 18.7542L72.8115 20.9825Z" stroke="black"/>
<rect x="56.7037" y="26.3699" width="29.734" height="29.734" transform="rotate(-8.69329 56.7037 26.3699)" fill="white" stroke="black"/>
<path d="M74.318 44.9347L65.9984 34.5476L79.1537 32.5361L74.318 44.9347Z" fill="black"/>
<rect x="47.3357" y="55.331" width="29.734" height="29.734" transform="rotate(-16.1036 47.3357 55.331)" fill="white" stroke="black"/>
<path d="M63.6119 58.1088L66.4871 61.0969L70.1858 59.2219L69.6423 63.3329L73.4143 65.0557L69.8612 67.1939L70.8662 71.2171L66.9792 69.7724L64.4603 73.0665L63.1663 69.1267L59.0204 69.2112L61.2938 65.7432L58.6428 62.5544L62.7717 62.1696L63.6119 58.1088Z" fill="black"/>
<rect x="2.606" y="40.9502" width="29.734" height="29.734" transform="rotate(-24.8005 2.606 40.9502)" fill="white" stroke="black"/>
<path d="M19.1151 41.2351L22.4091 43.7541L25.7817 41.3414L25.8661 45.4873L29.8552 46.6199L26.6663 49.2708L28.2681 53.0957L24.2073 52.2554L22.2155 55.8925L20.3407 52.1937L16.2552 52.9041L17.978 49.1322L14.8754 46.381L18.8986 45.3762L19.1151 41.2351Z" fill="black"/>
<rect x="23.3394" y="23.0203" width="29.734" height="29.734" transform="rotate(-19.4923 23.3394 23.0203)" fill="white" stroke="black"/>
<path d="M39.7513 24.8314L49.5583 29.5107L44.879 39.3177L35.072 34.6384L39.7513 24.8314Z" fill="black"/>
<rect x="39.0367" y="40.5232" width="29.734" height="29.734" transform="rotate(8.52569 39.0367 40.5232)" fill="white" stroke="black"/>
<path d="M52.5155 50.8919L53.5708 53.911L53.6928 54.2602L54.0624 54.2456L57.2582 54.1199L55.5558 56.8274L55.3589 57.1405L55.6007 57.4204L57.6914 59.8405L54.5133 60.1976L54.1457 60.2389L54.0776 60.6024L53.4891 63.746L51.2283 61.4838L50.9669 61.2222L50.6402 61.3957L47.8155 62.8955L48.1746 59.7175L48.2161 59.35L47.8768 59.2027L44.943 57.9294L47.6515 56.2287L47.9648 56.032L47.8684 55.6749L47.0347 52.5873L50.0531 53.6446L50.4022 53.7668L50.6212 53.4688L52.5155 50.8919Z" stroke="black"/>
</svg>
