<svg width="130" height="85" viewBox="0 0 130 85" fill="none" xmlns="http://www.w3.org/2000/svg">
<rect x="12.5" y="45.5" width="39" height="39" fill="white" stroke="black"/>
<path d="M32 55L34.5165 59.7744L39.8183 58.7651L37.6546 63.7094L41.7493 67.2252L36.5346 68.6162L36.3388 74.0097L32 70.8L27.6612 74.0097L27.4654 68.6162L22.2507 67.2252L26.3454 63.7094L24.1817 58.7651L29.4835 59.7744L32 55Z" fill="black"/>
<rect x="37.5" y="14.5" width="39" height="39" fill="white" stroke="black"/>
<path d="M56.6602 42L48 27L65.3205 27L56.6602 42Z" fill="black"/>
<rect x="82.5" y="5.5" width="39" height="39" fill="white" stroke="black"/>
<circle cx="102" cy="25" r="8" fill="black"/>
<rect x="62.5" y="39.5" width="39" height="39" fill="white" stroke="black"/>
<path d="M82 49L92 59L82 69L72 59L82 49Z" fill="black"/>
</svg>
