<svg width="192" height="249" viewBox="0 0 192 249" fill="none" xmlns="http://www.w3.org/2000/svg">
<g clip-path="url(#clip0)">
<rect x="0.860657" y="74.0859" width="166.689" height="139.122" fill="white" stroke="black"/>
<path d="M136.771 106.453L167.18 73.5859V212.838H136.771V106.453Z" fill="url(#paint0_linear)" fill-opacity="0.3"/>
<path d="M14.2623 114.588L22.0454 106.658H61.217L69 114.588V131.801L61.217 139.731H22.0454L14.2623 131.801V114.588Z" fill="black"/>
<path d="M167.18 74.4563L136.771 106.837V205.005" stroke="black"/>
<path d="M11.5876 0.97876H149.938V44.4451L102.232 88.3502H58.1268L11.5876 44.4488V0.97876Z" fill="black" stroke="black"/>
<path d="M11.5876 0.97876H149.938V44.1645H11.5876V0.97876Z" fill="white"/>
<path d="M11.5876 0.97876H149.938V44.1645H11.5876V0.97876Z" fill="url(#paint1_radial)"/>
<path d="M11.5876 0.97876H149.938V44.1645H11.5876V0.97876Z" stroke="black"/>
<path d="M149.5 1L121.5 37.5" stroke="black"/>
<path d="M12 1L40 37.5" stroke="black"/>
<path d="M83.7705 155.396H122M83.7705 161.489H122M83.7705 167.581H122" stroke="black"/>
<path d="M148.934 74.4563L137.838 90.1221M139.712 74.4563L128.616 90.1221M130.49 74.4563L119.393 90.1221" stroke="black" stroke-opacity="0.3"/>
<path d="M191.008 204.135C191.008 189.99 179.561 178.525 165.443 178.525H150.772V194.931H165.443C170.518 194.931 174.631 199.053 174.631 204.135V222.411C174.631 227.493 170.518 231.615 165.443 231.615H119.393C114.318 231.615 110.205 227.493 110.205 222.411V213.338H93.8279V222.411C93.8279 236.556 105.275 248.021 119.393 248.021H165.443C179.561 248.021 191.008 236.556 191.008 222.411V204.135Z" fill="white"/>
<path d="M191.008 204.135C191.008 189.99 179.561 178.525 165.443 178.525H150.772V194.931H165.443C170.518 194.931 174.631 199.053 174.631 204.135V222.411C174.631 227.493 170.518 231.615 165.443 231.615H119.393C114.318 231.615 110.205 227.493 110.205 222.411V213.338H93.8279V222.411C93.8279 236.556 105.275 248.021 119.393 248.021H165.443C179.561 248.021 191.008 236.556 191.008 222.411V204.135Z" fill="url(#paint2_radial)"/>
<path d="M191.008 204.135C191.008 189.99 179.561 178.525 165.443 178.525H150.772V194.931H165.443C170.518 194.931 174.631 199.053 174.631 204.135V222.411C174.631 227.493 170.518 231.615 165.443 231.615H119.393C114.318 231.615 110.205 227.493 110.205 222.411V213.338H93.8279V222.411C93.8279 236.556 105.275 248.021 119.393 248.021H165.443C179.561 248.021 191.008 236.556 191.008 222.411V204.135Z" stroke="black"/>
<path d="M159.733 244.17V235.466M154.023 244.17V235.466M148.314 244.17V235.466M142.604 244.17V235.466M136.895 244.17V235.466M131.185 244.17L131.185 235.466M125.475 244.17L125.475 235.466" stroke="black"/>
<path d="M113.044 131.028H92.7263L82.0328 114.58C91.222 105.517 113.488 104.846 123.738 114.58L113.044 131.028Z" fill="white"/>
<path d="M113.044 131.028H92.7263L82.0328 114.58C91.222 105.517 113.488 104.846 123.738 114.58L113.044 131.028Z" fill="url(#paint3_linear)"/>
<path d="M113.044 131.028H92.7263L82.0328 114.58C91.222 105.517 113.488 104.846 123.738 114.58L113.044 131.028Z" stroke="black"/>
<path d="M165.443 182.376L165.443 191.08" stroke="black"/>
<path d="M187.164 205.005H178.475" stroke="black"/>
<path d="M181.082 189.339L175.404 195.027" stroke="black"/>
<path d="M174.131 184.987L170.656 192.416" stroke="black"/>
<path d="M185.518 197.172L177.607 199.295" stroke="black"/>
<path d="M160.229 182.376L160.229 191.08" stroke="black"/>
<path d="M155.016 182.376L155.016 191.08" stroke="black"/>
<path d="M165.443 244.17L165.443 235.466" stroke="black"/>
<path d="M187.164 221.541H178.475" stroke="black"/>
<path d="M187.164 221.541H178.475" stroke="black"/>
<path d="M181.082 237.207L175.404 231.519" stroke="black"/>
<path d="M174.131 241.559L170.656 234.13" stroke="black"/>
<path d="M185.518 229.374L177.607 227.251" stroke="black"/>
<path d="M187.164 216.319H178.475" stroke="black"/>
<path d="M187.164 211.097H178.475" stroke="black"/>
<path d="M119.393 244.17L119.393 235.466" stroke="black"/>
<path d="M97.6721 221.541H106.361" stroke="black"/>
<path d="M103.754 237.207L109.432 231.519" stroke="black"/>
<path d="M110.705 241.559L114.18 234.13" stroke="black"/>
<path d="M99.3185 229.374L107.229 227.251" stroke="black"/>
<path d="M14.2623 156.363L22.0453 148.434H61.2169L69 156.363V164.003L61.2169 171.933H22.0453L14.2623 164.003V156.363Z" fill="black"/>
<path d="M96.1183 146.78C95.1114 147.363 93.8236 147.018 93.2418 146.008C92.6597 144.998 93.0055 143.707 94.0128 143.125C95.0196 142.542 96.3075 142.887 96.8893 143.897C97.4714 144.907 97.1256 146.198 96.1183 146.78Z" fill="black" stroke="black"/>
<path d="M103.938 146.78C102.931 147.363 101.643 147.018 101.061 146.008C100.479 144.998 100.825 143.707 101.833 143.125C102.839 142.542 104.127 142.887 104.709 143.897C105.291 144.907 104.945 146.198 103.938 146.78Z" stroke="black"/>
<path d="M111.758 146.78C110.751 147.363 109.463 147.018 108.881 146.008C108.299 144.998 108.645 143.707 109.652 143.125C110.659 142.542 111.947 142.887 112.529 143.897C113.111 144.907 112.765 146.198 111.758 146.78Z" stroke="black"/>
<rect x="14.7623" y="182.006" width="53.7377" height="19.8878" fill="white" stroke="black"/>
<path d="M59 213L53 189H46.5L41 213H59Z" fill="url(#paint4_linear)"/>
<rect x="59.0738" y="189.839" width="3.34427" height="8.57356" fill="white" stroke="black"/>
<path d="M18.8313 217.486L15.0739 220.192L21.6107 188.958H52.7583L46.2215 220.192L43.5967 217.486L43.3274 217.209L42.9419 217.486L38.5959 220.616L35.5598 217.486L35.2905 217.209L34.905 217.486L30.559 220.616L27.5229 217.486L27.2536 217.209L26.8681 217.486L22.5221 220.616L19.486 217.486L19.2167 217.209L18.8313 217.486Z" fill="white" stroke="black"/>
<path d="M32.6415 196.135H31.471C29.8141 196.135 28.1959 197.45 27.8565 199.071L26.9557 203.376M26.9557 203.376H24.1754M26.9557 203.376L26.0549 207.68C25.7155 209.301 26.7835 210.616 28.4404 210.616H29.6109" stroke="black"/>
<path d="M36.9633 200.394L31.3711 206.357" stroke="black"/>
<path d="M38.7235 196.135H39.894C41.5508 196.135 42.6189 197.45 42.2795 199.071L41.3787 203.376M41.3787 203.376H44.159M41.3787 203.376L40.4779 207.68C40.1385 209.301 38.5202 210.616 36.8634 210.616H35.6929" stroke="black"/>
<ellipse cx="60.746" cy="191.95" rx="2.17212" ry="2.61097" fill="black"/>
</g>
<defs>
<linearGradient id="paint0_linear" x1="152" y1="133.5" x2="151.975" y2="212.838" gradientUnits="userSpaceOnUse">
<stop stop-color="#434343"/>
<stop offset="1" stop-color="#434343" stop-opacity="0"/>
</linearGradient>
<radialGradient id="paint1_radial" cx="0" cy="0" r="1" gradientUnits="userSpaceOnUse" gradientTransform="translate(81 45) rotate(90) scale(33 72.4747)">
<stop stop-color="#A9A9A9"/>
<stop offset="1" stop-color="#969696" stop-opacity="0"/>
</radialGradient>
<radialGradient id="paint2_radial" cx="0" cy="0" r="1" gradientUnits="userSpaceOnUse" gradientTransform="translate(80 199) rotate(38.4278) scale(79.6765 110.966)">
<stop offset="0.115274" stop-color="#9E9E9E"/>
<stop offset="1" stop-color="white" stop-opacity="0"/>
</radialGradient>
<linearGradient id="paint3_linear" x1="130" y1="126" x2="94.5" y2="123.5" gradientUnits="userSpaceOnUse">
<stop stop-color="#A2A2A2"/>
<stop offset="1" stop-color="white" stop-opacity="0"/>
</linearGradient>
<linearGradient id="paint4_linear" x1="47" y1="189" x2="49.5" y2="214.5" gradientUnits="userSpaceOnUse">
<stop stop-opacity="0.45"/>
<stop offset="1" stop-opacity="0"/>
</linearGradient>
<clipPath id="clip0">
<rect width="192" height="249" fill="white"/>
</clipPath>
</defs>
</svg>
